<?xml version="1.0" encoding="UTF-8"?>
<svg version="1.1" xmlns="http://www.w3.org/2000/svg" width="133" height="183">
<path d="M0 0 C0.721875 0.495 1.44375 0.99 2.1875 1.5 C2.1875 2.16 2.1875 2.82 2.1875 3.5 C2.8475 3.5 3.5075 3.5 4.1875 3.5 C5.14126567 6.70782086 5.30371181 9.58187396 5.28515625 12.921875 C5.28193359 13.94667969 5.27871094 14.97148438 5.27539062 16.02734375 C5.26282227 17.62255859 5.26282227 17.62255859 5.25 19.25 C5.24548828 20.32894531 5.24097656 21.40789063 5.23632812 22.51953125 C5.22455727 25.17974383 5.20811399 27.83984365 5.1875 30.5 C5.8475 30.5 6.5075 30.5 7.1875 30.5 C7.17589844 29.45199219 7.16429687 28.40398438 7.15234375 27.32421875 C7.14296345 25.94531428 7.1338635 24.56640789 7.125 23.1875 C7.11662109 22.49720703 7.10824219 21.80691406 7.09960938 21.09570312 C7.08442094 17.9516975 7.18556673 15.50579981 8.1875 12.5 C9.81164378 12.30522261 11.43686423 12.11940542 13.0625 11.9375 C13.96742187 11.83308594 14.87234375 11.72867188 15.8046875 11.62109375 C18.1875 11.5 18.1875 11.5 20.1875 12.5 C20.1875 13.16 20.1875 13.82 20.1875 14.5 C20.909375 14.603125 21.63125 14.70625 22.375 14.8125 C25.48031145 15.57157613 27.49599407 16.79319136 30.1875 18.5 C31.156875 18.974375 32.12625 19.44875 33.125 19.9375 C36.32716104 21.57125563 39.19940923 23.50793949 42.1875 25.5 C43.6725 25.995 43.6725 25.995 45.1875 26.5 C45.1875 27.16 45.1875 27.82 45.1875 28.5 C45.74695313 28.61730469 46.30640625 28.73460938 46.8828125 28.85546875 C53.53078043 30.71464622 59.5517281 34.60863369 65.1875 38.5 C65.950625 38.83 66.71375 39.16 67.5 39.5 C69.1875 40.5 69.1875 40.5 69.75 42.5625 C69.9665625 43.5215625 69.9665625 43.5215625 70.1875 44.5 C71.6725 44.995 71.6725 44.995 73.1875 45.5 C76.19787932 52.78828678 75.90294482 60.89714854 74.1875 68.5 C73.5275 68.5 72.8675 68.5 72.1875 68.5 C72.1875 69.49 72.1875 70.48 72.1875 71.5 C71.5275 71.5 70.8675 71.5 70.1875 71.5 C69.93613281 72.11488281 69.68476562 72.72976562 69.42578125 73.36328125 C67.3588107 76.92994651 63.90576624 78.0141154 60.1875 79.5 C57.1875 80.25 57.1875 80.25 55.1875 80.5 C55.1875 79.84 55.1875 79.18 55.1875 78.5 C53.2075 78.005 53.2075 78.005 51.1875 77.5 C50.42637919 74.7685153 50.04946316 72.28488093 49.9765625 69.453125 C49.94820313 68.69 49.91984375 67.926875 49.890625 67.140625 C49.83905953 65.56272151 49.79463988 63.98456624 49.7578125 62.40625 C49.5346884 56.86533495 48.62857947 52.51561203 46.1875 47.5 C43.42262797 45.69325194 41.57701162 45.82281063 38.1875 45.5 C37.1975 46.49 37.1975 46.49 36.1875 47.5 C37.26 47.5825 38.3325 47.665 39.4375 47.75 C43.64844453 48.59218891 44.69248191 49.09572273 47.1875 52.5 C47.53689929 55.25086191 47.65635179 57.5883556 47.578125 60.328125 C47.57246521 61.07713074 47.56680542 61.82613647 47.56097412 62.59783936 C47.53864057 64.982552 47.48845386 67.36574408 47.4375 69.75 C47.41743091 71.36976991 47.39918085 72.98956346 47.3828125 74.609375 C47.33878624 78.57349966 47.26978298 82.53649232 47.1875 86.5 C46.5275 86.5 45.8675 86.5 45.1875 86.5 C45.1875 87.16 45.1875 87.82 45.1875 88.5 C44.1975 88.5 43.2075 88.5 42.1875 88.5 C42.1875 89.16 42.1875 89.82 42.1875 90.5 C39.89875827 91.83858524 37.60680344 93.17101014 35.3125 94.5 C34.66152344 94.8815625 34.01054688 95.263125 33.33984375 95.65625 C28.4140625 98.5 28.4140625 98.5 26.1875 98.5 C26.1875 99.16 26.1875 99.82 26.1875 100.5 C25.630625 100.603125 25.07375 100.70625 24.5 100.8125 C21.70969013 101.64205158 19.68025782 102.97835771 17.1875 104.5 C14.57308268 106.01875013 11.94337689 107.50998935 9.3125 109 C8.63058594 109.39058594 7.94867188 109.78117187 7.24609375 110.18359375 C-1.5492357 115.15923727 -8.47583379 117.64851847 -18.8125 116.5 C-24.25714985 114.9026737 -27.64101853 112.25722221 -30.8125 107.5 C-30.3175 106.51 -30.3175 106.51 -29.8125 105.5 C-30.4725 105.17 -31.1325 104.84 -31.8125 104.5 C-34.12983236 98.44918774 -34.0194204 91.70329397 -34.0625 85.3125 C-34.07168457 84.55267822 -34.08086914 83.79285645 -34.09033203 83.01000977 C-34.06403088 78.18269606 -33.35501511 74.12178969 -31.8125 69.5 C-31.4825 68.51 -31.1525 67.52 -30.8125 66.5 C-28.82682292 66.76041667 -26.84114583 67.02083333 -24.85546875 67.28125 C-22.65778294 67.553233 -22.65778294 67.553233 -19.8125 67.5 C-20.1425 67.17 -20.4725 66.84 -20.8125 66.5 C-20.93812235 64.73252271 -20.98826558 62.95939708 -21 61.1875 C-21.01417969 60.22199219 -21.02835938 59.25648437 -21.04296875 58.26171875 C-20.80657664 55.42902013 -20.39668691 53.84207035 -18.8125 51.5 C-16.8125 50.5 -14.8125 49.5 -12.8125 48.5 C-11.40783047 46.44906855 -11.40783047 46.44906855 -10.8125 44.5 C-11.575625 44.995 -12.33875 45.49 -13.125 46 C-15.8125 47.5 -15.8125 47.5 -18.8125 47.5 C-18.8125 48.16 -18.8125 48.82 -18.8125 49.5 C-22.74007913 52.11838609 -26.25021074 51.86792655 -30.8125 51.5 C-35.22834064 44.87623904 -33.99465725 35.05413794 -34 27.3125 C-34.01224609 26.36697266 -34.02449219 25.42144531 -34.03710938 24.44726562 C-34.0483739 19.05906843 -33.5948107 14.59332268 -31.8125 9.5 C-31.1525 9.5 -30.4925 9.5 -29.8125 9.5 C-29.565 8.71625 -29.3175 7.9325 -29.0625 7.125 C-27.65860901 4.17682892 -26.80574263 3.5975223 -23.8125 2.5 C-23.8125 1.84 -23.8125 1.18 -23.8125 0.5 C-16.66536526 -2.15939897 -7.03904336 -3.53628131 0 0 Z M6.09375 49.30859375 C4.12909638 54.05932944 3.91331772 59.41005199 4.1875 64.5 C4.8475 65.16 5.5075 65.82 6.1875 66.5 C6.30867188 65.85933594 6.42984375 65.21867187 6.5546875 64.55859375 C7.54429227 59.45071067 8.67260951 54.47749731 10.1875 49.5 C11.14462891 49.42652344 11.14462891 49.42652344 12.12109375 49.3515625 C12.94738281 49.27679688 13.77367187 49.20203125 14.625 49.125 C15.86056641 49.02058594 15.86056641 49.02058594 17.12109375 48.9140625 C18.14396484 48.70910156 18.14396484 48.70910156 19.1875 48.5 C19.5175 47.84 19.8475 47.18 20.1875 46.5 C14.99388235 43.90319117 9.5421066 44.4739046 6.09375 49.30859375 Z M24.1875 49.5 C24.2596875 50.7065625 24.331875 51.913125 24.40625 53.15625 C24.50012072 54.77082632 24.59386391 56.38541006 24.6875 58 C24.73519531 58.79148437 24.78289062 59.58296875 24.83203125 60.3984375 C25.12142637 65.442181 25.23384887 70.44797268 25.1875 75.5 C26.1775 75.5 27.1675 75.5 28.1875 75.5 C28.95718243 69.63117146 29.26343825 63.99636008 29.125 58.078125 C29.18893156 55.44094803 29.59670776 53.06625381 30.1875 50.5 C27.21175724 49.79733387 27.21175724 49.79733387 24.1875 49.5 Z M3.1875 66.5 C3.8475 67.16 4.5075 67.82 5.1875 68.5 C5.1875 67.84 5.1875 67.18 5.1875 66.5 C4.5275 66.5 3.8675 66.5 3.1875 66.5 Z M-7.4375 73 C-8.66339844 73.13921875 -8.66339844 73.13921875 -9.9140625 73.28125 C-10.54054688 73.3534375 -11.16703125 73.425625 -11.8125 73.5 C-8.90811011 75.87727232 -8.90811011 75.87727232 -5.1875 75.25 C-4.07375 75.0025 -2.96 74.755 -1.8125 74.5 C-1.4825 73.84 -1.1525 73.18 -0.8125 72.5 C-3.05624952 72.5 -5.20818543 72.74522119 -7.4375 73 Z " fill="#100F0F" transform="translate(45.8125,33.5)"/>
<path d="M0 0 C1.32 0.33 2.64 0.66 4 1 C4 9.91 4 18.82 4 28 C9.28 28 14.56 28 20 28 C20 19.09 20 10.18 20 1 C21.65 0.67 23.3 0.34 25 0 C27.23923514 4.47847029 26.54227514 10.33273721 26.6875 15.25 C26.76677734 16.47847656 26.84605469 17.70695312 26.92773438 18.97265625 C27.13297779 27.7838039 27.13297779 27.7838039 24.21508789 30.91601562 C21.55466058 32.52473469 18.84539183 33.74763877 16 35 C13.74916997 36.26967314 11.51145794 37.56279326 9.28515625 38.875 C8.09297897 39.55935505 6.89960215 40.2416244 5.70507812 40.921875 C3.27955102 42.30547096 0.85508045 43.69087633 -1.56835938 45.078125 C-5.03939827 47.06308024 -8.5194586 49.03175675 -12 51 C-13.56391479 51.8979126 -13.56391479 51.8979126 -15.15942383 52.81396484 C-16.60418091 53.62921631 -16.60418091 53.62921631 -18.078125 54.4609375 C-18.91633789 54.93837402 -19.75455078 55.41581055 -20.61816406 55.90771484 C-24.4595537 57.66933613 -27.89808052 57.91331801 -32 57 C-36.71230569 54.86612573 -38.9507037 52.18214447 -41.1862793 47.54101562 C-42.85290069 42.33663655 -42.40443309 36.90515804 -42.25 31.5 C-42.23195313 30.29601562 -42.21390625 29.09203125 -42.1953125 27.8515625 C-42.14846554 24.90020395 -42.08288005 21.95052964 -42 19 C-41.39019287 19.41644775 -40.78038574 19.83289551 -40.15209961 20.26196289 C-38.94565796 21.0778186 -38.94565796 21.0778186 -37.71484375 21.91015625 C-36.91941162 22.450354 -36.12397949 22.99055176 -35.30444336 23.54711914 C-29.09262026 27.46348308 -22.97860151 27.54830709 -16 26 C-11.20350108 24.15799851 -7.67673338 21.39749056 -5 17 C-3.80408636 13.71403167 -2.88712415 10.38052043 -2 7 C-1.60723966 5.62411907 -1.21184875 4.24898312 -0.8125 2.875 C-0.544375 1.92625 -0.27625 0.9775 0 0 Z " fill="#F1E412" transform="translate(60,84)"/>
<path d="M0 0 C6.26494153 0.48191858 6.26494153 0.48191858 9.20996094 2.55761719 C11.66320337 5.9048945 11.5044341 8.84214171 11.390625 12.828125 C11.38496521 13.57713074 11.37930542 14.32613647 11.37347412 15.09783936 C11.35114057 17.482552 11.30095386 19.86574408 11.25 22.25 C11.22993091 23.86976991 11.21168085 25.48956346 11.1953125 27.109375 C11.15128624 31.07349966 11.08228298 35.03649232 11 39 C10.34 39 9.68 39 9 39 C9 39.66 9 40.32 9 41 C8.01 41 7.02 41 6 41 C6 41.66 6 42.32 6 43 C3.71125827 44.33858524 1.41930344 45.67101014 -0.875 47 C-1.52597656 47.3815625 -2.17695312 47.763125 -2.84765625 48.15625 C-7.7734375 51 -7.7734375 51 -10 51 C-10 51.66 -10 52.32 -10 53 C-10.8353125 53.1546875 -10.8353125 53.1546875 -11.6875 53.3125 C-14.47780987 54.14205158 -16.50724218 55.47835771 -19 57 C-21.61441732 58.51875013 -24.24412311 60.00998935 -26.875 61.5 C-27.89787109 62.08587891 -27.89787109 62.08587891 -28.94140625 62.68359375 C-37.7367357 67.65923727 -44.66333379 70.14851847 -55 69 C-60.44464985 67.4026737 -63.82851853 64.75722221 -67 60 C-66.67 59.34 -66.34 58.68 -66 58 C-66.66 57.67 -67.32 57.34 -68 57 C-70.02442685 50.92671946 -70.39244371 45.21244119 -69 39 C-67.5329373 36.57615727 -65.99976113 34.99976113 -64 33 C-63.97421875 33.99 -63.9484375 34.98 -63.921875 36 C-63.63966965 43.43140758 -63.35419551 49.71060648 -59 56 C-55.69801086 59.0189615 -52.20416893 59.7790784 -47.73046875 59.58203125 C-41.27518891 58.20601309 -35.63272532 54.31383498 -30 51 C-28.00434065 49.84169916 -26.00821528 48.684201 -24.01171875 47.52734375 C-19.86738001 45.12083078 -15.73170741 42.70030957 -11.6015625 40.26953125 C-6.77545857 37.43653054 -1.90836856 34.68769665 3 32 C3.08690253 27.56262288 3.14035926 23.12546366 3.1875 18.6875 C3.21263672 17.42486328 3.23777344 16.16222656 3.26367188 14.86132812 C3.27333984 13.65283203 3.28300781 12.44433594 3.29296875 11.19921875 C3.3086792 10.08377686 3.32438965 8.96833496 3.34057617 7.8190918 C2.9580724 4.65294766 2.37138378 3.98064662 0 2 C0 1.34 0 0.68 0 0 Z " fill="#0F0F0E" transform="translate(82,81)"/>
<path d="M0 0 C0.06949335 7.51037714 0.12280778 15.02072096 0.15543652 22.53134632 C0.17109635 26.01881576 0.1923398 29.50606532 0.22631836 32.9934082 C0.2651328 37.00213743 0.2797065 41.01063548 0.29296875 45.01953125 C0.30845261 46.27272659 0.32393646 47.52592194 0.33988953 48.8170929 C0.34011612 49.97806992 0.34034271 51.13904694 0.34057617 52.33520508 C0.34723801 53.35890701 0.35389984 54.38260895 0.36076355 55.43733215 C0 58 0 58 -1.30253601 59.82670593 C-4.1816386 61.81675345 -6.63336141 61.42082982 -10 61 C-12 59.4375 -12 59.4375 -13 57 C-12.875 53.375 -12.875 53.375 -12 50 C-9 48 -9 48 -3 48 C-3 42.39 -3 36.78 -3 31 C-12.75458851 32.19443941 -18.11420436 33.01469864 -25 40 C-25.14942337 35.58932876 -25.25771011 31.18003519 -25.32958984 26.76757812 C-25.35958169 25.26992094 -25.40039126 23.77243671 -25.45263672 22.27539062 C-25.96291275 7.26727206 -25.96291275 7.26727206 -20.53125 1.31640625 C-14.34334042 -4.00330173 -7.08160602 -2.43073788 0 0 Z " fill="#14A3D7" transform="translate(43,37)"/>
<path d="M0 0 C0.721875 0.495 1.44375 0.99 2.1875 1.5 C2.1875 2.16 2.1875 2.82 2.1875 3.5 C2.8475 3.5 3.5075 3.5 4.1875 3.5 C5.14126567 6.70782086 5.30371181 9.58187396 5.28515625 12.921875 C5.28193359 13.94667969 5.27871094 14.97148438 5.27539062 16.02734375 C5.26282227 17.62255859 5.26282227 17.62255859 5.25 19.25 C5.24548828 20.32894531 5.24097656 21.40789063 5.23632812 22.51953125 C5.22455727 25.17974383 5.20811399 27.83984365 5.1875 30.5 C5.8475 30.5 6.5075 30.5 7.1875 30.5 C7.125625 29.324375 7.06375 28.14875 7 26.9375 C6.99198441 22.43273639 8.08274018 19.46666275 10.1875 15.5 C10.8475 15.17 11.5075 14.84 12.1875 14.5 C12.1875 20.44 12.1875 26.38 12.1875 32.5 C10.0390625 33.11848958 7.890625 33.73697917 5.7421875 34.35546875 C2.35798268 35.73352693 2.35798268 35.73352693 -2.8125 40.5 C-2.8125 28.29 -2.8125 16.08 -2.8125 3.5 C-13.2686089 1.64043129 -13.2686089 1.64043129 -22.8125 5.5 C-26.4914923 10.05147729 -27.29914597 13.05791853 -27.203125 18.8671875 C-27.19746521 19.54677521 -27.19180542 20.22636292 -27.18597412 20.92654419 C-27.16375351 23.07677549 -27.11359198 25.22528074 -27.0625 27.375 C-27.04241614 28.8411216 -27.02416868 30.30726958 -27.0078125 31.7734375 C-26.96393811 35.34951008 -26.89501443 38.92458631 -26.8125 42.5 C-26.04292969 41.71238281 -25.27335937 40.92476562 -24.48046875 40.11328125 C-20.04743166 35.77111169 -16.5837095 34.32983769 -10.4375 34.3125 C-8.91125 34.374375 -7.385 34.43625 -5.8125 34.5 C-5.8125 40.11 -5.8125 45.72 -5.8125 51.5 C-7.1325 51.17 -8.4525 50.84 -9.8125 50.5 C-9.8125 49.84 -9.8125 49.18 -9.8125 48.5 C-10.4725 48.5 -11.1325 48.5 -11.8125 48.5 C-11.4825 47.18 -11.1525 45.86 -10.8125 44.5 C-11.575625 44.995 -12.33875 45.49 -13.125 46 C-15.8125 47.5 -15.8125 47.5 -18.8125 47.5 C-18.8125 48.16 -18.8125 48.82 -18.8125 49.5 C-22.74007913 52.11838609 -26.25021074 51.86792655 -30.8125 51.5 C-35.22834064 44.87623904 -33.99465725 35.05413794 -34 27.3125 C-34.01224609 26.36697266 -34.02449219 25.42144531 -34.03710938 24.44726562 C-34.0483739 19.05906843 -33.5948107 14.59332268 -31.8125 9.5 C-31.1525 9.5 -30.4925 9.5 -29.8125 9.5 C-29.565 8.71625 -29.3175 7.9325 -29.0625 7.125 C-27.65860901 4.17682892 -26.80574263 3.5975223 -23.8125 2.5 C-23.8125 1.84 -23.8125 1.18 -23.8125 0.5 C-16.66536526 -2.15939897 -7.03904336 -3.53628131 0 0 Z " fill="#0E1111" transform="translate(45.8125,33.5)"/>
<path d="M0 0 C0 0.66 0 1.32 0 2 C-0.99 2.495 -0.99 2.495 -2 3 C-2 3.66 -2 4.32 -2 5 C-1.16210938 5.24234375 -0.32421875 5.4846875 0.5390625 5.734375 C4.44266263 7.16187663 7.84164218 9.10009588 11.375 11.25 C12.865201 12.14567096 14.35613242 13.04012738 15.84765625 13.93359375 C17.06606201 14.66425049 17.06606201 14.66425049 18.30908203 15.40966797 C21.29085831 17.17189721 24.29682258 18.88721723 27.30859375 20.59765625 C28.38512207 21.21286133 29.46165039 21.82806641 30.57080078 22.46191406 C32.70165398 23.67835233 34.83665022 24.88756691 36.97607422 26.08886719 C37.95979004 26.65379883 38.94350586 27.21873047 39.95703125 27.80078125 C40.83335205 28.29747314 41.70967285 28.79416504 42.61254883 29.3059082 C46.31367963 31.9321631 48.56513307 34.69539921 50 39 C50.42198294 44.48577823 49.77906712 48.22347838 47 53 C40.53744493 59 40.53744493 59 37 59 C36.99589111 58.34515625 36.99178223 57.6903125 36.98754883 57.015625 C36.95437785 54.00953862 36.88370974 51.00541639 36.8125 48 C36.80669922 46.97003906 36.80089844 45.94007812 36.79492188 44.87890625 C36.60002098 38.07903074 35.57283455 33.19943287 31 28 C26.55762685 24.84097909 22.30515816 24.19361596 17 25 C13.76605639 26.28322447 13.76605639 26.28322447 11 28 C9.66666667 28.66666667 8.33333333 29.33333333 7 30 C5.824375 29.0409375 5.824375 29.0409375 4.625 28.0625 C0.12394289 24.52595513 -3.39875729 24.36641681 -9 25 C-12.74262004 26.14317383 -15.18626071 27.73846334 -17.3203125 31.046875 C-18.31321005 33.00489673 -19.20125125 34.95599698 -20 37 C-20.33 37 -20.66 37 -21 37 C-21.94524409 30.26513586 -21.94524409 30.26513586 -19.46484375 26.9453125 C-14.70716766 22.52681563 -12.95711884 21.99387412 -6 21 C-6.33 15.39 -6.66 9.78 -7 4 C-7.99 6.31 -8.98 8.62 -10 11 C-10.33 11 -10.66 11 -11 11 C-11.125 4.375 -11.125 4.375 -10 1 C-6.76421296 -0.31828361 -3.44785988 -0.07836045 0 0 Z " fill="#E00B8B" transform="translate(64,45)"/>
<path d="M0 0 C6.25847345 2.44732073 13.2327321 5.91645221 16.9140625 11.76171875 C18.87538905 16.99192288 18.7258747 20.48291903 17.2265625 25.82421875 C14.69331101 30.17824475 11.5649885 32.74708967 7.2265625 35.26171875 C6.5665625 35.26171875 5.9065625 35.26171875 5.2265625 35.26171875 C5.22245361 34.606875 5.21834473 33.95203125 5.21411133 33.27734375 C5.18094035 30.27125737 5.11027224 27.26713514 5.0390625 24.26171875 C5.03326172 23.23175781 5.02746094 22.20179687 5.02148438 21.140625 C4.78018288 12.72188402 2.57739109 7.88423614 -3.0859375 1.76171875 C-3.6428125 1.26671875 -4.1996875 0.77171875 -4.7734375 0.26171875 C-2.7734375 -0.73828125 -2.7734375 -0.73828125 0 0 Z " fill="#DF0B8A" transform="translate(95.7734375,68.73828125)"/>
<path d="M0 0 C0.99 0 1.98 0 3 0 C3.06949335 7.51037714 3.12280778 15.02072096 3.15543652 22.53134632 C3.17109635 26.01881576 3.1923398 29.50606532 3.22631836 32.9934082 C3.2651328 37.00213743 3.2797065 41.01063548 3.29296875 45.01953125 C3.30845261 46.27272659 3.32393646 47.52592194 3.33988953 48.8170929 C3.34022942 50.55855843 3.34022942 50.55855843 3.34057617 52.33520508 C3.34723801 53.35890701 3.35389984 54.38260895 3.36076355 55.43733215 C3 58 3 58 1.69746399 59.82670593 C-1.1816386 61.81675345 -3.63336141 61.42082982 -7 61 C-9 59.4375 -9 59.4375 -10 57 C-9.875 53.375 -9.875 53.375 -9 50 C-6 48 -6 48 0 48 C0 42.39 0 36.78 0 31 C0.33 31 0.66 31 1 31 C1.33 21.1 1.66 11.2 2 1 C1.34 0.67 0.68 0.34 0 0 Z " fill="#14A2D7" transform="translate(40,37)"/>
<path d="M0 0 C0 0.66 0 1.32 0 2 C0.721875 2.103125 1.44375 2.20625 2.1875 2.3125 C5.29281145 3.07157613 7.30849407 4.29319136 10 6 C10.969375 6.474375 11.93875 6.94875 12.9375 7.4375 C16.13966104 9.07125563 19.01190923 11.00793949 22 13 C22.99 13.33 23.98 13.66 25 14 C25 14.66 25 15.32 25 16 C25.556875 16.11730469 26.11375 16.23460938 26.6875 16.35546875 C32.72886306 18.0392946 38.99818367 21.08867996 43 26 C39.22674373 27.21717944 37.13556303 27.47942638 33.43017578 25.91503906 C30.41693192 24.23325297 27.48688951 22.45697827 24.5625 20.625 C22.4278755 19.32812231 20.29245585 18.03255251 18.15625 16.73828125 C17.11339844 16.09971191 16.07054687 15.46114258 14.99609375 14.80322266 C10.27215421 11.96008238 5.43376283 9.32877307 0.55883789 6.75439453 C-3.89127105 4.32618684 -3.89127105 4.32618684 -5 1 C-2 0 -2 0 0 0 Z " fill="#100F10" transform="translate(66,46)"/>
<path d="M0 0 C0 0.66 0 1.32 0 2 C-1.98 2.99 -1.98 2.99 -4 4 C-4.33 9.94 -4.66 15.88 -5 22 C-3.35 22.33 -1.7 22.66 0 23 C0 23.33 0 23.66 0 24 C-0.80824219 24.08636719 -1.61648437 24.17273438 -2.44921875 24.26171875 C-9.18840061 25.09195036 -9.18840061 25.09195036 -15.0625 28.25 C-17.04717818 31.06696258 -18.60789337 33.84944289 -20 37 C-20.33 37 -20.66 37 -21 37 C-21.94524409 30.26513586 -21.94524409 30.26513586 -19.46484375 26.9453125 C-14.70716766 22.52681563 -12.95711884 21.99387412 -6 21 C-6.33 15.39 -6.66 9.78 -7 4 C-7.99 6.31 -8.98 8.62 -10 11 C-10.33 11 -10.66 11 -11 11 C-11.125 4.375 -11.125 4.375 -10 1 C-6.76421296 -0.31828361 -3.44785988 -0.07836045 0 0 Z " fill="#BA0974" transform="translate(64,45)"/>
<path d="M0 0 C0.99 0 1.98 0 3 0 C3 18.81 3 37.62 3 57 C2.67 57 2.34 57 2 57 C2 54.03 2 51.06 2 48 C1.34 48 0.68 48 0 48 C0 42.39 0 36.78 0 31 C0.33 31 0.66 31 1 31 C1.33 21.1 1.66 11.2 2 1 C1.34 0.67 0.68 0.34 0 0 Z " fill="#14B5EC" transform="translate(40,37)"/>
<path d="M0 0 C0.99 0.33 1.98 0.66 3 1 C3.05418326 3.08304538 3.09287551 5.16649768 3.125 7.25 C3.14820313 8.41015625 3.17140625 9.5703125 3.1953125 10.765625 C3.0103949 13.82786046 2.60823023 15.44202751 1 18 C0.34 18 -0.32 18 -1 18 C-1.33 18.66 -1.66 19.32 -2 20 C-2.88853833 16.31891262 -3.03845203 13.20368676 -2.6875 9.4375 C-2.60886719 8.50808594 -2.53023437 7.57867187 -2.44921875 6.62109375 C-2.00827376 4.04827559 -1.29591294 2.24801223 0 0 Z " fill="#171717" transform="translate(15,100)"/>
<path d="M0 0 C1.4540625 0.0309375 1.4540625 0.0309375 2.9375 0.0625 C2.9375 0.7225 2.9375 1.3825 2.9375 2.0625 C1.9475 2.5575 1.9475 2.5575 0.9375 3.0625 C0.24656104 5.64201874 0.24656104 5.64201874 -0.1875 8.625 C-0.35507812 9.63691406 -0.52265625 10.64882812 -0.6953125 11.69140625 C-0.81648438 12.47386719 -0.93765625 13.25632812 -1.0625 14.0625 C-2.3825 13.4025 -3.7025 12.7425 -5.0625 12.0625 C-5.3925 13.0525 -5.7225 14.0425 -6.0625 15.0625 C-6.0625 12.0925 -6.0625 9.1225 -6.0625 6.0625 C-5.4025 6.0625 -4.7425 6.0625 -4.0625 6.0625 C-4.0934375 4.8559375 -4.0934375 4.8559375 -4.125 3.625 C-4.03366838 -0.11959638 -3.80090148 0.07756942 0 0 Z " fill="#272721" transform="translate(59.0625,81.9375)"/>
<path d="M0 0 C0.33 0 0.66 0 1 0 C1 5.61 1 11.22 1 17 C-0.98 17.99 -0.98 17.99 -3 19 C-3.625 16.125 -3.625 16.125 -4 13 C-3.34 12.34 -2.68 11.68 -2 11 C-1.83293201 8.85449027 -1.83293201 8.85449027 -2 6.5 C-2.125 4.09375 -2.125 4.09375 -2 2 C-1.34 1.34 -0.68 0.68 0 0 Z " fill="#030303" transform="translate(100,87)"/>
<path d="M0 0 C0 4.62 0 9.24 0 14 C-3 14 -3 14 -5 13 C-4.19444444 0 -4.19444444 0 0 0 Z " fill="#0D0D0D" transform="translate(58,48)"/>
<path d="M0 0 C4.72048528 1.54488609 7.71001624 3.18361884 11 7 C6.60993163 8.07511878 3.95377757 8.3257941 0.0625 6.0625 C-0.948125 5.381875 -1.95875 4.70125 -3 4 C-3 3.34 -3 2.68 -3 2 C-2.01 1.34 -1.02 0.68 0 0 Z " fill="#1C1519" transform="translate(98,65)"/>
<path d="M0 0 C0 0.99 0 1.98 0 3 C-1.36125 3.8353125 -1.36125 3.8353125 -2.75 4.6875 C-6.79893417 7.56847239 -8.14492308 10.50416652 -10 15 C-10.33 15 -10.66 15 -11 15 C-11.4333528 11.91236129 -11.6895963 9.98133737 -11 7 C-8.01121732 3.27273023 -4.91896657 0 0 0 Z " fill="#E10E92" transform="translate(54,67)"/>
<path d="M0 0 C0 0.66 0 1.32 0 2 C0.598125 2.103125 1.19625 2.20625 1.8125 2.3125 C4.28243264 3.08876455 5.32251235 4.07088921 7 6 C5.328125 7.1796875 5.328125 7.1796875 3 8 C0.421875 6.8828125 0.421875 6.8828125 -2.25 5.125 C-3.14203125 4.55007812 -4.0340625 3.97515625 -4.953125 3.3828125 C-5.62859375 2.92648438 -6.3040625 2.47015625 -7 2 C-4.35261084 0.5393715 -3.10551666 0 0 0 Z " fill="#070506" transform="translate(91,60)"/>
<path d="M0 0 C0.33 0.99 0.66 1.98 1 3 C0.21625 3.2475 -0.5675 3.495 -1.375 3.75 C-4.32317108 5.15389099 -4.9024777 6.00675737 -6 9 C-7.65 8.67 -9.3 8.34 -11 8 C-10.01508224 4.35580428 -9.34173648 3.21085868 -6.0625 1.1875 C-3 0 -3 0 0 0 Z " fill="#1C1F20" transform="translate(36,82)"/>
<path d="M0 0 C0 0.66 0 1.32 0 2 C1.175625 2.185625 1.175625 2.185625 2.375 2.375 C5 3 5 3 7 5 C6.01 5.99 5.02 6.98 4 8 C2.68176698 7.40844669 1.37052949 6.80128537 0.0625 6.1875 C-0.66839844 5.85105469 -1.39929688 5.51460937 -2.15234375 5.16796875 C-4 4 -4 4 -5 1 C-2 0 -2 0 0 0 Z " fill="#0F0B0E" transform="translate(66,46)"/>
<path d="M0 0 C0.33 0.66 0.66 1.32 1 2 C2.65614657 2.38218767 4.32457024 2.71395102 6 3 C6.66 3.33 7.32 3.66 8 4 C8.625 6.0625 8.625 6.0625 9 8 C7.02 8.99 7.02 8.99 5 10 C5 9.34 5 8.68 5 8 C3.68 7.67 2.36 7.34 1 7 C0.67 4.69 0.34 2.38 0 0 Z " fill="#292929" transform="translate(96,104)"/>
<path d="M0 0 C0 0.66 0 1.32 0 2 C-2.1095168 3.13009829 -3.72944914 3.96817049 -6.125 4.25 C-6.74375 4.4975 -7.3625 4.745 -8 5 C-9.3045656 7.99615946 -9.3045656 7.99615946 -10 11 C-10.33 11 -10.66 11 -11 11 C-11.125 4.375 -11.125 4.375 -10 1 C-6.76421296 -0.31828361 -3.44785988 -0.07836045 0 0 Z " fill="#655F63" transform="translate(64,45)"/>
<path d="M0 0 C0 3.3 0 6.6 0 10 C-2.475 9.01 -2.475 9.01 -5 8 C-3.91891892 0 -3.91891892 0 0 0 Z " fill="#030303" transform="translate(18,48)"/>
<path d="M0 0 C1.32 0.66 2.64 1.32 4 2 C3.67 3.32 3.34 4.64 3 6 C2.34 6 1.68 6 1 6 C0.67 6.99 0.34 7.98 0 9 C-0.66 8.34 -1.32 7.68 -2 7 C-1.34 4.69 -0.68 2.38 0 0 Z " fill="#222222" transform="translate(14,43)"/>
<path d="M0 0 C2 2 2 2 2.1953125 4.1640625 C2.16050781 5.38222656 2.16050781 5.38222656 2.125 6.625 C2.10695313 7.44226563 2.08890625 8.25953125 2.0703125 9.1015625 C2.04710938 9.72804688 2.02390625 10.35453125 2 11 C1.01 11.33 0.02 11.66 -1 12 C-1.02698189 10.37509046 -1.04638757 8.75005367 -1.0625 7.125 C-1.07410156 6.22007813 -1.08570312 5.31515625 -1.09765625 4.3828125 C-1 2 -1 2 0 0 Z " fill="#1F1F1F" transform="translate(97,88)"/>
<path d="M0 0 C0.33 0 0.66 0 1 0 C1 2.64 1 5.28 1 8 C-0.98 8.99 -0.98 8.99 -3 10 C-3.6875 8.25 -3.6875 8.25 -4 6 C-2.625 3.875 -2.625 3.875 -1 2 C-0.67 1.34 -0.34 0.68 0 0 Z " fill="#020202" transform="translate(17,114)"/>
<path d="M0 0 C0.33 0.99 0.66 1.98 1 3 C-3.455 3.495 -3.455 3.495 -8 4 C-8.33 3.34 -8.66 2.68 -9 2 C-3.375 0 -3.375 0 0 0 Z " fill="#343434" transform="translate(42,146)"/>
<path d="M0 0 C0.99 0.33 1.98 0.66 3 1 C2.67 2.98 2.34 4.96 2 7 C0.35 7 -1.3 7 -3 7 C-2.01 4.69 -1.02 2.38 0 0 Z " fill="#0A0906" transform="translate(54,94)"/>
<path d="M0 0 C2.88437779 1.29299694 4.87219421 2.65941363 7 5 C4 6 4 6 0.8125 4.5625 C-0.115625 4.046875 -1.04375 3.53125 -2 3 C-1.34 2.01 -0.68 1.02 0 0 Z " fill="#262626" transform="translate(102,67)"/>
<path d="M0 0 C1.98 0.66 3.96 1.32 6 2 C4.68 3.32 3.36 4.64 2 6 C0.68 4.68 -0.64 3.36 -2 2 C-1.34 2 -0.68 2 0 2 C0 1.34 0 0.68 0 0 Z " fill="#2E292C" transform="translate(72,51)"/>
<path d="M0 0 C2.16874252 0.50603992 3.99967627 0.99983813 6 2 C6 2.66 6 3.32 6 4 C1.25 5.125 1.25 5.125 -1 4 C-0.67 2.68 -0.34 1.36 0 0 Z " fill="#22191E" transform="translate(82,57)"/>
<path d="M0 0 C0.99 0.33 1.98 0.66 3 1 C3 2.65 3 4.3 3 6 C1.35 5.67 -0.3 5.34 -2 5 C-1.34 3.35 -0.68 1.7 0 0 Z " fill="#2F2F2F" transform="translate(15,100)"/>
<path d="M0 0 C0.99 0.33 1.98 0.66 3 1 C3 2.65 3 4.3 3 6 C1.68 5.34 0.36 4.68 -1 4 C-1.33 4.99 -1.66 5.98 -2 7 C-2 5.35 -2 3.7 -2 2 C-1.34 1.67 -0.68 1.34 0 1 C0 0.67 0 0.34 0 0 Z " fill="#494945" transform="translate(55,90)"/>
<path d="M0 0 C3 2 3 2 3.6875 4.625 C3.790625 5.40875 3.89375 6.1925 4 7 C3.01 7.495 3.01 7.495 2 8 C2 7.34 2 6.68 2 6 C1.34 5.67 0.68 5.34 0 5 C-0.33 4.01 -0.66 3.02 -1 2 C-0.67 1.34 -0.34 0.68 0 0 Z " fill="#4A4A4A" transform="translate(14,133)"/>
<path d="M0 0 C-0.598125 0.268125 -1.19625 0.53625 -1.8125 0.8125 C-5.22084219 2.6627429 -6.85142361 4.77713542 -9 8 C-8.6875 5.125 -8.6875 5.125 -8 2 C-4.77208445 -0.1519437 -3.71599191 -0.20086443 0 0 Z " fill="#15B6EC" transform="translate(39,85)"/>
<path d="M0 0 C0.66 0 1.32 0 2 0 C2.625 2.375 2.625 2.375 3 5 C2.34 5.66 1.68 6.32 1 7 C0.34 5.02 -0.32 3.04 -1 1 C-0.67 0.67 -0.34 0.34 0 0 Z " fill="#070707" transform="translate(95,83)"/>
<path d="M0 0 C0.66 0 1.32 0 2 0 C2.33 0.99 2.66 1.98 3 3 C2.01 4.485 2.01 4.485 1 6 C0.01 5.67 -0.98 5.34 -2 5 C-2 4.01 -2 3.02 -2 2 C-1.34 2 -0.68 2 0 2 C0 1.34 0 0.68 0 0 Z " fill="#0A0B0C" transform="translate(18,39)"/>
<path d="M0 0 C0.99 0 1.98 0 3 0 C2.625 1.9375 2.625 1.9375 2 4 C1.01 4.495 1.01 4.495 0 5 C0 4.34 0 3.68 0 3 C-0.66 2.67 -1.32 2.34 -2 2 C-1.34 1.34 -0.68 0.68 0 0 Z " fill="#1D1D1D" transform="translate(20,36)"/>
<path d="" fill="#000000" transform="translate(0,0)"/>
<path d="" fill="#0000FF" transform="translate(0,0)"/>
<path d="" fill="#0000FF" transform="translate(0,0)"/>
<path d="" fill="#000000" transform="translate(0,0)"/>
<path d="" fill="#000000" transform="translate(0,0)"/>
<path d="" fill="#00FFFF" transform="translate(0,0)"/>
<path d="" fill="#000000" transform="translate(0,0)"/>
</svg>
